# xmcd CD database file
# Copyright (C) 1993-1998 Ti Kan
#
# Track frame offsets:
#  150
#  13655
#  27218
#  42068
#  54880
#  68720
#  82163
#  98538
#  115983
#  130595
#  144688
#  161993
#  175235
#  193393
#  211178
#
# Disc length: 3529 seconds
#
# Revision: 1
# Processed by: cddbd v1.4b41PL1 Copyright (c) Steve Scherf et al.
# Submitted via: CDWizzard Release:4.35
#
DISCID=cc0dc70f
DTITLE=Marvin Gaye - 15 Greatest Hits
DYEAR=1900
DGENRE=
TTITLE0=How Sweet It Is (To Be Loved By You)
TTITLE1=Ain't That Peculiar
TTITLE2=I Heard It Through The Grapevine
TTITLE3=You're All I Need To Get By
TTITLE4=Your Precious Love
TTITLE5=Too Busy Thinking About My Baby
TTITLE6=That's The Way Love Is
TTITLE7=What's Going On
TTITLE8=Mercy Mercy Me (The Ecology)
TTITLE9=Inner City Blues (Make Me Wanna Holler)
TTITLE10=Trouble Man
TTITLE11=My Mistake (Was To Love You)
TTITLE12=Let's Get It On
TTITLE13=I Want You
TTITLE14=Got To Give It Up
EXTD=
EXTT0=E. Holland, Jr., L. Dozier, B. Holland [#6]
EXTT1=W. Robinson, W. Moore, M. Tarplin, R. Rogers [#8]
EXTT2=N. Whitfield, B. Strong [#1]
EXTT3=N. Ashford, V. Simpson [#7]
EXTT4=N. Ashford, V. Simpson [#5]
EXTT5=N. Whitfield, J. Bradford [#4]
EXTT6=N. Whitfield, B. Strong [#7]
EXTT7=M. Gaye, A. Cleveland, R. Benson [#2]
EXTT8=M. Gaye [#4]
EXTT9=M. Gaye, J. Nyx [#9]
EXTT10=M. Gaye [#7]
EXTT11=P. Sawyer, G. Jones [#19]
EXTT12=M. Gaye, E. Townsend [#15]
EXTT13=T. Ross, L. Ware [#15]
EXTT14=M. Gaye [#1]
PLAYORDER=
